<svg id="Layer_1" data-name="Layer 1" xmlns="http://www.w3.org/2000/svg" viewBox="0 0 395 41.13"><defs><style>.cls-1{fill:#231f20;}.cls-2{fill:#ec1c24;}</style></defs><title>Untitled-2</title><path class="cls-1" d="M1,33.86H2.58a2,2,0,0,0,1.53-1.58V10.87A1.92,1.92,0,0,0,2.58,9.34H1v-7H16.89V40.59H1Zm17.53,6.73V33.54h.17c5.35,0,8.14-3.71,8.14-11.86S24.16,9.83,18.7,9.83h-.17V2.35h.33c14.48,0,21.08,6,21.08,18.84S33.17,40.59,18.53,40.59Z" transform="translate(-1)"/><path class="cls-1" d="M55.83,33.86H59v6.73H41.19V33.86h1.37a1.77,1.77,0,0,0,1.31-1.37V10.65a1.63,1.63,0,0,0-1.31-1.31H41v-7h13c1.09,0,1.75.93,1.75,2.4Zm5.68-11.2c0-2.13-1-2.56-3.5-2.56h-.54v-6a13.51,13.51,0,0,1,8.57-3c3.83,0,7.43,1.58,7.43,6.88V32.49a1.69,1.69,0,0,0,1.31,1.37h.88v6.73H61.51Z" transform="translate(-1)"/><path class="cls-1" d="M91.93,34.19l1,4.86A11.13,11.13,0,0,1,86.19,41c-4.8,0-9-2.68-9-8.25,0-6.29,4.43-9,11.2-9a35.29,35.29,0,0,1,3.61.17v5a2.94,2.94,0,0,0-.66-.05c-1.91,0-2.95.71-2.95,2.83s1.15,2.63,2.62,2.63A4.06,4.06,0,0,0,91.93,34.19Zm1.75-11.85c0-2-1.1-2.95-3.88-2.95a8.1,8.1,0,0,0-5.63,2h-5V13.22a40.54,40.54,0,0,1,13.49-2c9.07,0,13,3,13,9.78V32.49A1.67,1.67,0,0,0,107,33.86h.93v5.69a14.33,14.33,0,0,1-6.83,1.52c-3.71,0-7.37-1.2-7.37-7.37Z" transform="translate(-1)"/><path class="cls-1" d="M124,33.86h2.4v6.73h-17V33.86h1.36a1.74,1.74,0,0,0,1.37-1.37V10.71a1.75,1.75,0,0,0-1.37-1.37h-1.47v-7h13c1,0,1.7.93,1.7,2.4Zm1.69-11.3,2.19-1.81c1.36-1.14,1-2.13-.28-2.13h-1V11.74h16.61V18.9h-.66a3,3,0,0,0-1.75.76l-5.73,4.59,6,8.19c.49.66,1,1.42,1.64,1.42h.66v6.73H129V34l-3.22-3.94Z" transform="translate(-1)"/><path class="cls-1" d="M159.59,34.19l1,4.86A11.15,11.15,0,0,1,153.85,41c-4.8,0-9-2.68-9-8.25,0-6.29,4.43-9,11.2-9a35.43,35.43,0,0,1,3.61.17v5a2.94,2.94,0,0,0-.66-.05c-1.91,0-2.95.71-2.95,2.83s1.15,2.63,2.62,2.63A4.11,4.11,0,0,0,159.59,34.19Zm1.75-11.85c0-2-1.1-2.95-3.88-2.95a8.1,8.1,0,0,0-5.63,2h-5V13.22a40.54,40.54,0,0,1,13.49-2c9.07,0,13,3,13,9.78V32.49a1.67,1.67,0,0,0,1.31,1.37h.93v5.69a14.33,14.33,0,0,1-6.83,1.52c-3.71,0-7.37-1.2-7.37-7.37Z" transform="translate(-1)"/><path class="cls-2" d="M187.27,9.67h-1.53l-.81,7h-7.6V2.35h9.94ZM201.8,2.35V32.28a2,2,0,0,0,1.53,1.58h1.81v6.73H185.69V33.86h1.8A2,2,0,0,0,189,32.28V2.35Zm1.65,0H213.5V16.71H206l-.88-7h-1.63Z" transform="translate(-1)"/><path class="cls-2" d="M215.35,33.86h1.36a1.82,1.82,0,0,0,1.37-1.37V20.26a1.76,1.76,0,0,0-1.37-1.36h-1.53V11.74h12.51c1.09,0,2.29.66,2.29,5.3V33.86h3.23v6.73H215.35ZM231.62,22.5V15.08a6.89,6.89,0,0,1,6.17-3.67,5.09,5.09,0,0,1,1.75.33V22h-1.2A42.87,42.87,0,0,0,231.62,22.5Z" transform="translate(-1)"/><path class="cls-2" d="M241.56,33.86H243a1.67,1.67,0,0,0,1.31-1.37V20.26A1.75,1.75,0,0,0,243,18.9h-1.59V11.74h13.17c1.09,0,1.69,1,1.69,2.79v18a1.74,1.74,0,0,0,1.36,1.37H259v6.73H241.56Zm3.17-28.67C244.73,2.07,247,0,250.24,0s5.57,2.07,5.57,5.19-2.29,5.08-5.57,5.08S244.73,8.25,244.73,5.19Z" transform="translate(-1)"/><path class="cls-2" d="M273.67,32.49c0,4.93-2.84,8.1-3.88,8.1h-8V10.71a1.76,1.76,0,0,0-1.36-1.37h-1.48v-7H272c1,0,1.69.93,1.69,2.4Zm1.64,1.43h1c2.34,0,4.48-1.43,4.48-7.54,0-5.46-2-6.61-4.43-6.61h-1.09V13.66a10.43,10.43,0,0,1,6.93-2.46c5.47,0,10.66,3.22,10.66,14.14s-5.19,15.79-12.24,15.79a10.09,10.09,0,0,1-6.77-2.24Z" transform="translate(-1)"/><path class="cls-2" d="M312.61,32.44v5.85a12.92,12.92,0,0,1-8.36,2.78c-3.83,0-7.64-1.59-7.64-6.88V20.26a1.78,1.78,0,0,0-1.32-1.36h-1.14V11.74h14.41v18c0,2.24,1.15,2.73,3.56,2.73Zm1.63-13.54h-2.89V11.74h14.86V32.49a1.75,1.75,0,0,0,1.31,1.37h1.26v6.73H316.54c-1.09,0-2.3-.88-2.3-5.31Z" transform="translate(-1)"/><path class="cls-2" d="M330.41,33.86h1.36a1.82,1.82,0,0,0,1.37-1.37V20.26a1.76,1.76,0,0,0-1.37-1.36h-1.52V11.74h12.5c1.09,0,2.3.66,2.3,5.3V33.86h3.22v6.73H330.41ZM346.69,20.1v-6a13.51,13.51,0,0,1,8.57-3c3.82,0,7.43,1.58,7.43,6.88V32.49a1.74,1.74,0,0,0,1.36,1.37h.87v6.73H350.78V22.66c0-2.13-1-2.56-3.49-2.56Z" transform="translate(-1)"/><path class="cls-2" d="M382.51,34v7.1c-12.45-.32-16.5-5.73-16.5-14.74s5.58-14.75,14.75-15.13v6.93c-1.58.22-2.9,2.08-2.9,7.87C377.86,32.06,379.18,33.65,382.51,34Zm-2.89-10.86h5.24c-.06-3.56-.93-4.76-2.46-5V11.2c9.23.27,13.6,4.86,13.6,14.69,0,1.36-.11,2.46-.11,2.84H379.62Zm4.53,18V33.92a5.49,5.49,0,0,0,4.42-2.4h6.28v6.93A24,24,0,0,1,384.15,41.07Z" transform="translate(-1)"/></svg>