<?xml version="1.0" encoding="utf-8"?>
<!-- Generator: Adobe Illustrator 16.0.0, SVG Export Plug-In . SVG Version: 6.00 Build 0)  -->
<!DOCTYPE svg PUBLIC "-//W3C//DTD SVG 1.1//EN" "http://www.w3.org/Graphics/SVG/1.1/DTD/svg11.dtd">
<svg version="1.1" id="Layer_1" xmlns="http://www.w3.org/2000/svg" xmlns:xlink="http://www.w3.org/1999/xlink" x="0px" y="0px"
	 width="333.146px" height="113px" viewBox="0 0 333.146 113" enable-background="new 0 0 333.146 113" xml:space="preserve">
<g>
	<g>
		<g>
			<path d="M322.811,53.275c0-12.396-10.085-22.48-22.481-22.48c-12.396,0-22.48,10.085-22.48,22.48
				c0,5.81,2.215,11.111,5.845,15.105c-3.63,3.994-5.845,9.295-5.845,15.105c0,12.396,10.085,22.48,22.48,22.48
				c12.396,0,22.481-10.084,22.481-22.48c0-5.811-2.215-11.111-5.845-15.105C320.596,64.386,322.811,59.084,322.811,53.275z
				 M300.33,45.545c4.263,0,7.729,3.468,7.729,7.729s-3.467,7.729-7.729,7.729c-4.262,0-7.729-3.468-7.729-7.729
				S296.068,45.545,300.33,45.545z M300.33,91.214c-4.262,0-7.729-3.467-7.729-7.729s3.467-7.73,7.729-7.73
				c4.263,0,7.729,3.469,7.729,7.73S304.592,91.214,300.33,91.214z"/>
			<path d="M270.983,59.451c0-15.362-12.499-27.861-27.862-27.861c-6.122,0-11.934,1.949-16.806,5.638l8.904,11.761
				c2.287-1.731,5.02-2.647,7.901-2.647c7.229,0,13.111,5.882,13.111,13.11c0,7.229-5.882,13.111-13.111,13.111
				c-1.707,0-3.365-0.32-4.926-0.955l-2.795-1.133l-7.667,10.711l25.509,25.508l10.431-10.432l-10.734-10.732
				C263.472,81.55,270.983,71.361,270.983,59.451z"/>
		</g>
		<polygon fill="#ED1C24" points="10.335,69.071 35.197,83.425 74.835,60.54 74.835,31.833 		"/>
		<g>
			<polygon points="74.835,106.31 74.835,60.54 35.197,83.425 			"/>
			<polygon points="65.531,32.054 10.528,32.054 10.528,39.196 53.163,39.196 			"/>
			<path d="M212.275,35.319v-3.265h-37.711c3.513,1.913,6.696,4.32,9.466,7.142h13.502v67.224h14.751V35.319H212.275z"/>
			<rect x="160.744" y="3.597" transform="matrix(0.5 0.8661 -0.8661 0.5 98.8659 -137.0557)" width="14.751" height="26.981"/>
			<path d="M155.764,32.414c-6.145-0.226-15.512,1.896-21.733,8.696c-3.252,3.554-6.872,9.793-5.649,19.334
				c0.799,6.22,5.001,12.261,10.969,15.763c4.838,2.838,10.281,3.822,15.746,2.916l-1.706-14.715
				c-2.884,0.67-5.126-0.076-6.574-0.925c-2.356-1.384-3.624-3.518-3.802-4.916c-0.411-3.2,0.211-5.653,1.9-7.5
				c2.475-2.705,7.127-4.036,10.277-3.913c10.549,0.41,18.637,7.492,20.127,17.624c0.971,6.601-0.771,13.106-4.905,18.319
				c-4.217,5.32-10.306,8.566-17.146,9.143c-10.998,0.93-21.797-3.582-28.889-12.061c-2.602-3.109-4.601-6.615-5.943-10.421
				l-13.911,4.909c1.931,5.473,4.804,10.512,8.54,14.977c9.293,11.109,23.03,17.467,37.368,17.467c1.354,0,2.713-0.057,4.074-0.172
				c10.781-0.908,20.792-6.258,27.467-14.676c6.689-8.439,9.51-18.963,7.94-29.632C187.398,45.523,173.355,33.097,155.764,32.414z"
				/>
			<path d="M130.141,37.404c1.98-2.164,4.205-3.923,6.544-5.35H84.788v3.265h-0.037v71.101h14.751V39.196h29.131
				C129.134,38.546,129.641,37.95,130.141,37.404z"/>
		</g>
	</g>
	<g>
		<g>
			<path d="M190.609,19.587v7.559l-0.461-0.668l-0.145-0.363l-0.173-0.348c-0.019-0.059-0.048-0.106-0.086-0.146l-0.087-0.131
				l-0.291-0.418c-0.31-0.348-0.667-0.632-1.072-0.854l-0.508-0.275l-0.435-0.202l-0.913-0.159l-0.956-1.36l0.912-0.607l0.897-0.551
				l1.268-0.588l0.597-0.244l0.685-0.229v-0.415h-4.719l-0.784-0.812h6.893l0.782,0.812H190.609z M189.841,21.223
				c-0.623,0.191-1.368,0.556-2.235,1.092l-0.475,0.309l0.274,0.131l0.552,0.305l0.507,0.333l0.318,0.276l0.479,0.464l0.334,0.421
				l0.246,0.334V21.223z"/>
			<path d="M192.881,20.209l-0.163-1.188l-0.054-0.868v-0.318v-0.362l0.346,0.261l0.061,0.361l0.061,0.232l0.06,0.159l0.166,0.202
				l0.075,0.087h0.738l0.782,0.812h-1.521v7.646l-0.768-0.84l-0.044-5.749c-0.028-0.203-0.082-0.348-0.159-0.435
				c-0.271-0.425-0.617-0.637-1.042-0.637l-0.912-0.797h1.057c0.425,0,0.797,0.333,1.115,0.999L192.881,20.209z"/>
			<path d="M198.237,21.208l-0.115,0.261l-0.145,0.304c-0.174,0.252-0.299,0.406-0.376,0.464c-0.078,0.058-0.261,0.149-0.551,0.275
				h-0.231c-0.405,0.028-0.786-0.188-1.144-0.649c-0.338-0.423-0.507-0.841-0.507-1.254c0-0.653,0.319-1.105,0.956-1.355
				c0.174-0.067,0.343-0.101,0.507-0.101c0.463,0,0.888,0.251,1.274,0.753l0.202,0.376l0.102,0.305l0.029,0.304L198.237,21.208z
				 M198.601,26.9l-1.159-0.956l-0.738-0.564l-1.26-0.884v-1.723l1.13,0.984l0.594,0.564c0.222,0.213,0.694,0.758,1.419,1.637
				l0.941,1.144v0.725L198.601,26.9z M197.312,20.383l-0.261-0.087l-0.318-0.043c-0.608,0-0.912,0.348-0.912,1.042
				c0,0.328,0.125,0.492,0.376,0.492c0.231,0,0.579-0.183,1.043-0.55l0.159-0.188l0.145-0.376
				C197.534,20.577,197.457,20.48,197.312,20.383z"/>
			<path d="M204.667,21.382v-1.795h-5.839l-0.778-0.812h7.936l0.781,0.812h-1.274v7.472l-0.825-0.786v-4.061
				c0-0.116-0.044-0.228-0.132-0.335c-0.127-0.368-0.414-0.553-0.862-0.553c-0.05,0-0.161,0.089-0.337,0.267l-0.088,0.222v0.267
				l0.058,0.415l-0.396,0.133l-0.092-0.25l-0.061-0.115l-0.201-0.352l-0.157-0.176c-0.134-0.098-0.387-0.22-0.76-0.366l-0.301-0.044
				c-0.573,0-0.97,0.323-1.188,0.97l-0.043,0.305c0,0.164,0.086,0.381,0.26,0.651l0.333,0.203l0.247,0.043l-0.073-0.102
				c-0.067-0.164-0.101-0.304-0.101-0.42c0.028-0.077,0.11-0.255,0.246-0.535c0.154-0.106,0.352-0.188,0.594-0.246
				c0.405,0,0.671,0.197,0.796,0.594l0.102,0.318l0.072,0.361l-0.043,0.116c-0.02,0.077-0.165,0.256-0.435,0.536
				c-0.203,0.135-0.444,0.202-0.725,0.202l-0.607-0.087l-0.464-0.188c-0.271-0.184-0.521-0.439-0.753-0.768
				c-0.145-0.328-0.217-0.666-0.217-1.014l0.043-0.492l0.072-0.348c0.164-0.328,0.328-0.594,0.492-0.797
				c0.31-0.289,0.643-0.435,1-0.435c0.24,0,0.569,0.083,0.984,0.246l0.376,0.319l0.246,0.304c0.02-0.109,0.049-0.199,0.087-0.27
				l0.333-0.359l0.218-0.135l0.231-0.105c0.271,0,0.502,0.085,0.695,0.253l0.289,0.4l0.131,0.193L204.667,21.382z"/>
			<path d="M207.679,20.209l-0.163-1.188l-0.054-0.868v-0.318v-0.362l0.346,0.261l0.061,0.361l0.061,0.232l0.06,0.159l0.166,0.202
				l0.075,0.087h0.738l0.782,0.812h-1.521v7.646l-0.768-0.84l-0.044-5.749c-0.028-0.203-0.082-0.348-0.159-0.435
				c-0.271-0.425-0.617-0.637-1.042-0.637l-0.912-0.797h1.057c0.425,0,0.797,0.333,1.115,0.999L207.679,20.209z"/>
			<path d="M214.557,19.587v7.385l-0.348-0.348c-0.116-0.231-0.3-0.584-0.551-1.058c-0.154-0.27-0.381-0.56-0.68-0.868
				c-0.599-0.599-1.236-0.961-1.912-1.086l-0.405-0.072h-0.246l-0.984-1.339l0.897-0.611l0.551-0.334l0.376-0.189l1.23-0.597
				l1.274-0.484v-0.398h-4.488l-0.825-0.812h6.719l0.825,0.812H214.557z M212.443,25.755c-0.174,0.377-0.4,0.564-0.681,0.564
				c-0.213,0-0.403-0.084-0.572-0.253s-0.253-0.359-0.253-0.572c0-0.192,0.077-0.366,0.231-0.521s0.328-0.232,0.521-0.232
				l0.261,0.059c0.231,0.145,0.361,0.236,0.391,0.274c0.097,0.106,0.145,0.256,0.145,0.449
				C212.486,25.621,212.472,25.698,212.443,25.755z M213.76,24.974v-3.838l-0.463,0.146l-0.333,0.116l-0.77,0.387l-0.636,0.392
				l-0.492,0.362l0.319,0.159l0.274,0.116l0.261,0.174l0.377,0.29l0.448,0.392l0.594,0.652
				C213.437,24.427,213.577,24.645,213.76,24.974z"/>
			<path d="M217.974,28.073c-0.261,0.376-0.637,0.685-1.129,0.927l-0.188-0.362c0.251-0.077,0.509-0.268,0.774-0.572
				c0.266-0.304,0.398-0.581,0.398-0.832c0-0.126-0.049-0.208-0.145-0.246l-0.449,0.072c-0.541,0-0.811-0.254-0.811-0.76
				c0-0.604,0.304-0.905,0.912-0.905c0.261,0,0.555,0.149,0.883,0.448c0.203,0.405,0.305,0.738,0.305,0.999
				C218.525,27.131,218.341,27.542,217.974,28.073z"/>
			<path d="M227.706,19.587v7.559l-0.461-0.668l-0.145-0.363l-0.173-0.348c-0.019-0.059-0.048-0.106-0.086-0.146l-0.087-0.131
				l-0.291-0.418c-0.31-0.348-0.667-0.632-1.072-0.854l-0.508-0.275l-0.435-0.202l-0.913-0.159l-0.956-1.36l0.912-0.607l0.897-0.551
				l1.268-0.588l0.597-0.244l0.685-0.229v-0.415h-4.719l-0.784-0.812h6.893l0.782,0.812H227.706z M226.938,21.223
				c-0.623,0.191-1.368,0.556-2.235,1.092l-0.475,0.309l0.274,0.131l0.552,0.305l0.507,0.333l0.318,0.276l0.479,0.464l0.334,0.421
				l0.246,0.334V21.223z"/>
			<path d="M229.978,20.209l-0.163-1.188l-0.054-0.868v-0.318v-0.362l0.346,0.261l0.061,0.361l0.061,0.232l0.06,0.159l0.166,0.202
				l0.075,0.087h0.738l0.782,0.812h-1.521v7.646l-0.768-0.84l-0.044-5.749c-0.028-0.203-0.082-0.348-0.159-0.435
				c-0.271-0.425-0.617-0.637-1.042-0.637l-0.912-0.797h1.057c0.425,0,0.797,0.333,1.115,0.999L229.978,20.209z"/>
			<path d="M236.538,26.61c-0.271,0.077-0.638,0.106-1.101,0.087c-0.444-0.067-0.894-0.227-1.347-0.478
				c-0.666-0.579-1.135-1.173-1.405-1.781l-0.289-0.651l-0.275-0.768l-0.159-0.71l-0.116-0.724l-0.145-1.058l0.478,0.348
				c0.126,0.753,0.241,1.251,0.348,1.492l0.362,0.854c0.396,0.946,1.028,1.642,1.896,2.086l0.435,0.087l0.405,0.043
				c0.493,0,0.894-0.106,1.202-0.318c0.357-0.251,0.536-0.613,0.536-1.086c0-0.241-0.121-0.517-0.362-0.825l-0.116,0.173
				l-0.13,0.102l-0.507,0.392c-0.454,0.347-0.797,0.521-1.028,0.521c-0.202,0-0.497-0.154-0.883-0.463l-0.231-0.304l-0.218-0.493
				v-1.737l-0.359-0.275l-0.819-0.694l-0.359-0.42l-0.201-0.246l-0.273-0.362l1.158-0.304l0.594,1.129l0.174,0.203l0.145,0.13
				c0.146-0.348,0.28-0.589,0.406-0.724c0.154-0.223,0.487-0.43,0.999-0.623c0.105-0.038,0.246-0.058,0.42-0.058
				c0.646,0,1.071,0.231,1.274,0.695l0.115,0.55c0,0.425-0.24,0.763-0.72,1.014l-0.604,0.217l-0.432,0.072h-0.23l-0.389-0.043
				c-0.048-0.02-0.092-0.043-0.13-0.072v1.241c0,0.312,0.13,0.468,0.39,0.468c0.259,0,0.576-0.22,0.951-0.659l0.274-0.322
				l0.23-0.365c0.49,0.173,0.879,0.521,1.168,1.042c0.259,0.474,0.389,0.99,0.389,1.55c0,0.473-0.143,0.904-0.427,1.296
				C237.345,26.226,236.981,26.485,236.538,26.61z M236.454,20.064c-0.049-0.066-0.131-0.101-0.247-0.101
				c-0.164,0-0.36,0.046-0.587,0.138c-0.228,0.092-0.395,0.195-0.501,0.312c-0.029,0.02-0.145,0.198-0.348,0.535l0.058,0.059
				c0.067,0.02,0.15,0.028,0.247,0.028c0.29-0.028,0.479-0.053,0.566-0.072c0.503-0.115,0.783-0.367,0.842-0.754L236.454,20.064z"/>
			<path d="M240.127,20.209l-0.163-1.188l-0.054-0.868v-0.318v-0.362l0.346,0.261l0.061,0.361l0.061,0.232l0.06,0.159l0.166,0.202
				l0.075,0.087h0.738l0.782,0.812h-1.521v7.646l-0.768-0.84l-0.044-5.749c-0.028-0.203-0.082-0.348-0.159-0.435
				c-0.271-0.425-0.617-0.637-1.042-0.637l-0.912-0.797h1.057c0.425,0,0.797,0.333,1.115,0.999L240.127,20.209z"/>
			<path d="M248.06,17.128l-0.419-0.276l-0.608-0.247l-0.897-0.247l-0.564-0.043l-0.753,0.087c-0.145,0-0.449,0.145-0.912,0.434
				l-0.087,0.073l-0.318,0.376l-0.333,0.507l-0.101,0.261l-0.044,0.13l0.261,0.594h0.84l0.797,0.812h-1.376v7.37l-0.811-0.766
				v-6.604h-1.049l-0.79-0.812h1.839l-0.583-0.651l-0.083-0.333c0-0.154,0.023-0.28,0.072-0.376l0.087-0.261
				c0.356-0.531,0.584-0.845,0.681-0.941c0.183-0.184,0.521-0.382,1.013-0.594c0.241-0.106,0.7-0.159,1.376-0.159h0.261l0.174,0.058
				l0.536,0.131l0.391,0.173c0.463,0.203,0.869,0.396,1.216,0.58l0.479,0.347l0.567,0.514l0.263,0.278l0.219,0.616L248.06,17.128z"
				/>
			<path d="M250.306,21.382v-1.795h-5.839l-0.778-0.812h7.936l0.781,0.812h-1.274v7.472l-0.825-0.786v-4.061
				c0-0.116-0.044-0.228-0.132-0.335c-0.127-0.368-0.414-0.553-0.862-0.553c-0.05,0-0.161,0.089-0.337,0.267l-0.088,0.222v0.267
				l0.058,0.415l-0.396,0.133l-0.092-0.25l-0.061-0.115l-0.201-0.352l-0.157-0.176c-0.134-0.098-0.387-0.22-0.76-0.366l-0.301-0.044
				c-0.573,0-0.97,0.323-1.188,0.97l-0.043,0.305c0,0.164,0.086,0.381,0.26,0.651l0.333,0.203l0.247,0.043l-0.073-0.102
				c-0.067-0.164-0.101-0.304-0.101-0.42c0.028-0.077,0.11-0.255,0.246-0.535c0.154-0.106,0.352-0.188,0.594-0.246
				c0.405,0,0.671,0.197,0.796,0.594l0.102,0.318l0.072,0.361l-0.043,0.116c-0.02,0.077-0.165,0.256-0.435,0.536
				c-0.203,0.135-0.444,0.202-0.725,0.202l-0.607-0.087l-0.464-0.188c-0.271-0.184-0.521-0.439-0.753-0.768
				c-0.145-0.328-0.217-0.666-0.217-1.014l0.043-0.492l0.072-0.348c0.164-0.328,0.328-0.594,0.492-0.797
				c0.31-0.289,0.643-0.435,1-0.435c0.24,0,0.569,0.083,0.984,0.246l0.376,0.319l0.246,0.304c0.02-0.109,0.049-0.199,0.087-0.27
				l0.333-0.359l0.218-0.135l0.231-0.105c0.271,0,0.502,0.085,0.695,0.253l0.289,0.4l0.131,0.193L250.306,21.382z"/>
			<path d="M257.228,19.587v7.385l-0.348-0.348c-0.116-0.231-0.3-0.584-0.551-1.058c-0.154-0.27-0.381-0.56-0.68-0.868
				c-0.599-0.599-1.236-0.961-1.912-1.086l-0.405-0.072h-0.246l-0.984-1.339L253,21.59l0.551-0.334l0.376-0.189l1.23-0.597
				l1.274-0.484v-0.398h-4.488l-0.825-0.812h6.719l0.825,0.812H257.228z M255.114,25.755c-0.174,0.377-0.4,0.564-0.681,0.564
				c-0.213,0-0.403-0.084-0.572-0.253s-0.253-0.359-0.253-0.572c0-0.192,0.077-0.366,0.231-0.521s0.328-0.232,0.521-0.232
				l0.261,0.059c0.231,0.145,0.361,0.236,0.391,0.274c0.097,0.106,0.145,0.256,0.145,0.449
				C255.157,25.621,255.143,25.698,255.114,25.755z M256.431,24.974v-3.838l-0.463,0.146l-0.333,0.116l-0.77,0.387l-0.636,0.392
				l-0.492,0.362l0.319,0.159l0.274,0.116l0.261,0.174l0.377,0.29l0.448,0.392l0.594,0.652
				C256.108,24.427,256.248,24.645,256.431,24.974z"/>
			<path d="M267.798,19.573v7.486l-0.768-0.912v-3.026c-0.106-0.377-0.204-0.623-0.292-0.739c-0.137-0.192-0.375-0.323-0.717-0.391
				c-0.106,0-0.171,0.01-0.189,0.03c-0.059,0-0.171,0.07-0.337,0.211l-0.197,0.255l-0.57,0.807
				c-0.106,0.154-0.241,0.343-0.405,0.565c-0.126,0.145-0.285,0.299-0.478,0.463l-0.333,0.015h-0.159
				c-0.087,0-0.241-0.048-0.464-0.145l-0.115-0.087l-0.304-0.261l-0.377-0.579l-0.159-0.275l-0.13-0.289l0.529-0.507l0.19,0.485
				l0.239,0.366c0.058,0.06,0.148,0.104,0.273,0.133c0.067,0,0.115-0.01,0.145-0.029l0.188-0.145l0.317-0.42l0.594-0.84
				l-0.043-0.405l-0.044-0.305c-0.038-0.125-0.193-0.328-0.463-0.607l-0.333-0.146l-0.492-0.072l-0.695-0.043
				c-0.203-0.106-0.323-0.179-0.362-0.218c-0.038-0.038-0.13-0.159-0.275-0.361l-0.318-0.029l-0.825-0.782h7.906l0.796,0.797
				H267.798z M267.031,19.573h-3.156c0.241,0.193,0.381,0.313,0.42,0.362c0.125,0.125,0.227,0.279,0.304,0.463l0.146,0.695
				l-0.015,0.174l0.015,0.014l0.189-0.115c0.126-0.097,0.291-0.208,0.495-0.333l0.219-0.015l0.335,0.058l0.306,0.246l0.743,0.884
				V19.573z"/>
			<path d="M272.43,21.208l-0.115,0.261l-0.145,0.304c-0.174,0.252-0.299,0.406-0.376,0.464c-0.078,0.058-0.261,0.149-0.551,0.275
				h-0.231c-0.405,0.028-0.786-0.188-1.144-0.649c-0.338-0.423-0.507-0.841-0.507-1.254c0-0.653,0.319-1.105,0.956-1.355
				c0.174-0.067,0.343-0.101,0.507-0.101c0.463,0,0.888,0.251,1.274,0.753l0.202,0.376l0.102,0.305l0.029,0.304L272.43,21.208z
				 M272.794,26.9l-1.159-0.956l-0.738-0.564l-1.26-0.884v-1.723l1.13,0.984l0.594,0.564c0.222,0.213,0.694,0.758,1.419,1.637
				l0.941,1.144v0.725L272.794,26.9z M271.505,20.383l-0.261-0.087l-0.318-0.043c-0.608,0-0.912,0.348-0.912,1.042
				c0,0.328,0.125,0.492,0.376,0.492c0.231,0,0.579-0.183,1.043-0.55l0.159-0.188l0.145-0.376
				C271.727,20.577,271.65,20.48,271.505,20.383z"/>
			<path d="M278.485,19.587v7.559l-0.461-0.668l-0.145-0.363l-0.173-0.348c-0.019-0.059-0.048-0.106-0.086-0.146l-0.087-0.131
				l-0.291-0.418c-0.31-0.348-0.667-0.632-1.072-0.854l-0.508-0.275l-0.435-0.202l-0.913-0.159l-0.956-1.36l0.912-0.607l0.897-0.551
				l1.268-0.588l0.597-0.244l0.685-0.229v-0.415h-4.719l-0.784-0.812h6.893l0.782,0.812H278.485z M277.717,21.223
				c-0.623,0.191-1.368,0.556-2.235,1.092l-0.475,0.309l0.274,0.131l0.552,0.305l0.507,0.333l0.318,0.276l0.479,0.464l0.334,0.421
				l0.246,0.334V21.223z"/>
			<path d="M280.757,20.209l-0.163-1.188l-0.054-0.868v-0.318v-0.362l0.346,0.261l0.061,0.361l0.061,0.232l0.06,0.159l0.166,0.202
				l0.075,0.087h0.738l0.782,0.812h-1.521v7.646l-0.768-0.84l-0.044-5.749c-0.028-0.203-0.082-0.348-0.159-0.435
				c-0.271-0.425-0.617-0.637-1.042-0.637l-0.912-0.797h1.057c0.425,0,0.797,0.333,1.115,0.999L280.757,20.209z"/>
			<path d="M284.247,19.587v2.925l0.246-0.188l0.971-0.854l0.434-0.333l0.565-0.318l0.984-0.435l1.317,0.958l-0.403,0.798
				l-0.492,1.625l-0.06,0.494v0.769v0.479l0.046,0.551l0.186,1.002l-0.579-0.29l-0.188-0.897l-0.174-0.97l-0.072-0.941l0.043-1.014
				v-0.318l0.137-0.622l0.03-0.059c-0.204,0.075-0.428,0.169-0.671,0.28l-0.348,0.217l-0.305,0.245l-0.478,0.448l-0.392,0.477
				l-0.667,1.099l-0.985-1.011v-4.115h-1.086l-0.825-0.812h7.022l0.826,0.812H284.247z"/>
			<path d="M298.466,19.573v7.486l-0.768-0.912v-3.026c-0.106-0.377-0.204-0.623-0.292-0.739c-0.137-0.192-0.375-0.323-0.717-0.391
				c-0.106,0-0.171,0.01-0.189,0.03c-0.059,0-0.171,0.07-0.337,0.211l-0.197,0.255l-0.57,0.807
				c-0.106,0.154-0.241,0.343-0.405,0.565c-0.126,0.145-0.285,0.299-0.478,0.463l-0.333,0.015h-0.159
				c-0.087,0-0.241-0.048-0.464-0.145l-0.115-0.087l-0.304-0.261l-0.377-0.579l-0.159-0.275l-0.13-0.289l0.529-0.507l0.19,0.485
				l0.239,0.366c0.058,0.06,0.148,0.104,0.273,0.133c0.067,0,0.115-0.01,0.145-0.029l0.188-0.145l0.317-0.42l0.594-0.84
				l-0.043-0.405l-0.044-0.305c-0.038-0.125-0.193-0.328-0.463-0.607l-0.333-0.146l-0.492-0.072l-0.695-0.043
				c-0.203-0.106-0.323-0.179-0.362-0.218c-0.038-0.038-0.13-0.159-0.275-0.361l-0.318-0.029l-0.825-0.782h7.906l0.796,0.797
				H298.466z M297.699,19.573h-3.156c0.241,0.193,0.381,0.313,0.42,0.362c0.125,0.125,0.227,0.279,0.304,0.463l0.146,0.695
				l-0.015,0.174l0.015,0.014l0.189-0.115c0.126-0.097,0.291-0.208,0.495-0.333l0.219-0.015l0.335,0.058l0.306,0.246l0.743,0.884
				V19.573z"/>
			<path d="M300.71,20.209l-0.163-1.188l-0.054-0.868v-0.318v-0.362l0.346,0.261l0.061,0.361l0.061,0.232l0.06,0.159l0.166,0.202
				l0.075,0.087H302l0.782,0.812h-1.521v7.646l-0.768-0.84l-0.044-5.749c-0.028-0.203-0.082-0.348-0.159-0.435
				c-0.271-0.425-0.617-0.637-1.042-0.637l-0.912-0.797h1.057c0.425,0,0.797,0.333,1.115,0.999L300.71,20.209z"/>
			<path d="M307.588,19.587v7.385l-0.348-0.348c-0.116-0.231-0.3-0.584-0.551-1.058c-0.154-0.27-0.381-0.56-0.68-0.868
				c-0.599-0.599-1.236-0.961-1.912-1.086l-0.405-0.072h-0.246l-0.984-1.339l0.897-0.611l0.551-0.334l0.376-0.189l1.23-0.597
				l1.274-0.484v-0.398h-4.488l-0.825-0.812h6.719l0.825,0.812H307.588z M305.474,25.755c-0.174,0.377-0.4,0.564-0.681,0.564
				c-0.213,0-0.403-0.084-0.572-0.253s-0.253-0.359-0.253-0.572c0-0.192,0.077-0.366,0.231-0.521s0.328-0.232,0.521-0.232
				l0.261,0.059c0.231,0.145,0.361,0.236,0.391,0.274c0.097,0.106,0.145,0.256,0.145,0.449
				C305.517,25.621,305.503,25.698,305.474,25.755z M306.792,24.974v-3.838l-0.463,0.146l-0.333,0.116l-0.77,0.387l-0.636,0.392
				l-0.492,0.362l0.319,0.159l0.274,0.116l0.261,0.174l0.377,0.29l0.448,0.392l0.594,0.652
				C306.468,24.427,306.608,24.645,306.792,24.974z"/>
			<path d="M314.87,17.128l-0.419-0.276l-0.608-0.247l-0.897-0.247l-0.564-0.043l-0.753,0.087c-0.145,0-0.449,0.145-0.912,0.434
				l-0.087,0.073l-0.318,0.376l-0.333,0.507l-0.101,0.261l-0.044,0.13l0.261,0.594h0.84l0.797,0.812h-1.376v7.37l-0.811-0.766
				v-6.604h-1.049l-0.79-0.812h1.839l-0.583-0.651l-0.083-0.333c0-0.154,0.023-0.28,0.072-0.376l0.087-0.261
				c0.356-0.531,0.584-0.845,0.681-0.941c0.183-0.184,0.521-0.382,1.013-0.594c0.241-0.106,0.7-0.159,1.376-0.159h0.261l0.174,0.058
				l0.536,0.131l0.391,0.173c0.463,0.203,0.869,0.396,1.216,0.58l0.479,0.347l0.567,0.514l0.263,0.278l0.219,0.616L314.87,17.128z"
				/>
			<path d="M317.26,19.587v7.472l-0.521-0.721l-0.435-0.648c-0.116-0.221-0.435-0.543-0.956-0.966l-1.071-0.576l-0.623-0.145
				l-0.68-0.043l-1.202-1.579h0.435l0.188-0.028l0.377-0.072c0.357,0,0.758-0.15,1.202-0.452c0.386-0.262,0.704-0.558,0.955-0.888
				l0.087-0.247l0.059-0.292c-0.01-0.476-0.305-0.747-0.884-0.814c-0.136,0-0.4,0.106-0.796,0.32
				c-0.106,0.059-0.228,0.16-0.362,0.307l0.188,0.218l0.188,0.511l-0.101,0.233l-0.174,0.291l-0.319,0.219l-0.376,0.059
				c-0.569,0-0.894-0.355-0.971-1.066l0.029-0.216l0.072-0.274c0.116-0.422,0.449-0.772,0.999-1.052
				c0.483-0.24,0.971-0.36,1.463-0.36c0.502,0,0.934,0.202,1.296,0.607c0.362,0.404,0.543,0.861,0.543,1.372
				c0,0.443-0.231,0.987-0.695,1.633c-0.125,0.173-0.448,0.419-0.97,0.736c0.126,0.059,0.219,0.116,0.276,0.174l0.379,0.23
				l0.379,0.261l0.539,0.477l0.481,0.52l0.233,0.333v-7.732l0.463,0.535l0.029,0.131c0,0.348,0.092,0.589,0.274,0.724h0.638
				l0.782,0.812H317.26z"/>
		</g>
	</g>
	<g>
		<path d="M86.729,19.081c0-0.785,0.122-2.059-0.768-2.39v-0.053h4.133c2.302,0,3.646,0.977,3.646,2.529
			c0,1.168-0.75,1.831-1.744,2.268c1.569,0.331,2.843,1.377,2.843,3.087c0,1.343-0.924,2.494-2.093,3.052
			c-1.221,0.593-2.599,0.541-3.907,0.541h-2.878v-0.053c0.872-0.331,0.768-1.604,0.768-2.406V19.081z M89.083,21.26
			c1.133,0,2.755-0.384,2.755-1.813c0-1.204-1.116-1.832-2.163-1.727l-1.168,0.122v3.418H89.083z M90.025,26.859
			c1.43,0.14,2.878-0.523,2.878-2.181c0-1.691-1.639-2.424-3.174-2.337l-1.221,0.07v4.308L90.025,26.859z"/>
		<path d="M103.806,28.341c-1.151-0.07-2.302-0.419-2.302-1.813v-2.756c-0.506,0.262-1.099,0.401-1.674,0.54
			c-0.837,0.192-1.779,0.384-1.779,1.448c0,1.081,0.977,1.43,1.901,1.43c0.418,0,0.837-0.122,1.255-0.244l-1.029,1.309
			c-0.296,0.052-0.61,0.087-0.907,0.087c-1.762,0-2.982-1.116-2.982-2.563c0-3.244,5.215-1.744,5.215-3.646
			c0-0.837-1.029-1.116-1.674-1.116c-0.89,0-1.587,0.331-2.372,0.697l1.168-1.744l1.134-0.104c1.883,0,3.313,0.541,3.331,2.651
			v2.616c0,1.378,0.035,1.9,1.482,2.058L103.806,28.341z"/>
		<path d="M106.807,20.091c0.401,0,0.82-0.017,1.064-0.227h0.052v1.326c0.384-0.785,1.186-1.326,2.058-1.326l0.628,0.053v1.604
			c-0.192-0.209-0.506-0.279-0.802-0.279c-1.326,0-1.884,0.698-1.884,2.494v2.441c0,0.803-0.104,1.448,0.663,1.884v0.053h-2.913
			v-0.053c0.767-0.436,0.663-1.081,0.663-1.884V22.01c0-0.803,0.104-1.431-0.646-1.866v-0.053H106.807z"/>
		<path d="M114.308,24.731c0,0.663-0.209,2.459,1.657,2.459c0.244,0,0.471-0.087,0.698-0.174l-0.925,1.238
			c-0.174,0.052-0.366,0.087-0.558,0.087c-2.703,0-2.459-2.791-2.459-3.471v-3.628h-1.186v-0.628c1.64-0.279,2.076-1.5,2.076-3.122
			h0.698v2.599h1.639c0.227,0,0.488,0,0.663-0.104h0.053v1.587h-0.053c-0.279-0.366-0.802-0.331-1.255-0.331h-1.046V24.731z"/>
		<path d="M125.227,28.341c-1.151-0.07-2.302-0.419-2.302-1.813v-2.756c-0.506,0.262-1.099,0.401-1.674,0.54
			c-0.837,0.192-1.779,0.384-1.779,1.448c0,1.081,0.977,1.43,1.901,1.43c0.418,0,0.837-0.122,1.255-0.244l-1.029,1.309
			c-0.296,0.052-0.61,0.087-0.907,0.087c-1.762,0-2.982-1.116-2.982-2.563c0-3.244,5.215-1.744,5.215-3.646
			c0-0.837-1.029-1.116-1.674-1.116c-0.89,0-1.587,0.331-2.372,0.697l1.168-1.744l1.134-0.104c1.883,0,3.313,0.541,3.331,2.651
			v2.616c0,1.378,0.035,1.9,1.482,2.058L125.227,28.341z"/>
		<path d="M126.938,28.115l4.396-6.366c0.472-0.68,1.187-1.5,1.187-2.372c0-1.046-0.994-1.656-1.953-1.656
			c-1.117,0-2.146,0.54-3.018,1.116h-0.053l1.047-2.128c0.732-0.21,1.518-0.349,2.284-0.349c1.937,0,3.681,1.028,3.681,2.599
			c0,0.802-0.332,1.43-0.732,2.093l-3.82,5.633l2.303,0.175c1.256,0,2.529-0.227,3.592-0.803h0.053l-0.959,2.059H126.938z"/>
		<path d="M136.655,25.743l5.425-9.104h2.407v7.744c0.802,0,1.604-0.227,2.215-0.732l-0.838,2.093h-1.377v0.349
			c0,0.768,0.018,1.587,0.767,1.971v0.053h-3.384v-0.053c0.96-0.349,0.855-0.977,0.855-1.866v-0.453H136.655z M142.725,17.912
			l-3.68,6.349c0.906,0.052,2.162,0.122,3.68,0.122V17.912z"/>
	</g>
</g>
</svg>
